<?xml version="1.0" encoding="UTF-8" standalone="no"?>
<svg width="170px" height="50px" viewBox="0 0 170 50" version="1.1" xmlns="http://www.w3.org/2000/svg" xmlns:xlink="http://www.w3.org/1999/xlink" xmlns:sketch="http://www.bohemiancoding.com/sketch/ns">
    <!-- Generator: Sketch 3.1.1 (8761) - http://www.bohemiancoding.com/sketch -->
    <title>mobile_icon + desktop_icon + sync_icon</title>
    <desc>Created with Sketch.</desc>
    <defs></defs>
    <g id="Page-1" stroke="none" stroke-width="1" fill="none" fill-rule="evenodd" sketch:type="MSPage">
        <g id="Homepage-1440" sketch:type="MSArtboardGroup" transform="translate(-837.000000, -1798.000000)" fill="#2C90FF">
            <g id="mobile_icon-+-desktop_icon-+-sync_icon" sketch:type="MSLayerGroup" transform="translate(837.000000, 1799.000000)">
                <g id="mobile_icon" transform="translate(137.000000, 0.000000)" sketch:type="MSShapeGroup">
                    <path d="M27.0906835,48.3396069 L5.01679325,48.3396069 C2.25053345,48.3396069 0,46.083072 0,43.3094355 L0,5.08013317 C0,2.30649668 2.25053345,0.0499618014 5.01679325,0.0499618014 L27.0906835,0.0499618014 C29.8569433,0.0499618014 32.1074768,2.30649668 32.1074768,5.08013317 L32.1074768,43.3094355 C32.1074768,46.083072 29.8569433,48.3396069 27.0906835,48.3396069 L27.0906835,48.3396069 Z M5.01679325,2.06203035 C3.35723804,2.06203035 2.0067173,3.41615248 2.0067173,5.08013317 L2.0067173,43.3094355 C2.0067173,44.9734162 3.35723804,46.3275384 5.01679325,46.3275384 L27.0906835,46.3275384 C28.7502388,46.3275384 30.1007595,44.9734162 30.1007595,43.3094355 L30.1007595,5.08013317 C30.1007595,3.41615248 28.7502388,2.06203035 27.0906835,2.06203035 L5.01679325,2.06203035 L5.01679325,2.06203035 Z" id="Fill-1"></path>
                    <path d="M31.1041181,10.1103045 L1.00335865,10.1103045 C0.448501317,10.1103045 0,9.65960118 0,9.10427026 C0,8.54893934 0.448501317,8.09823599 1.00335865,8.09823599 L31.1041181,8.09823599 C31.6589755,8.09823599 32.1074768,8.54893934 32.1074768,9.10427026 C32.1074768,9.65960118 31.6589755,10.1103045 31.1041181,10.1103045" id="Fill-2"></path>
                    <path d="M31.1041181,40.2913327 L1.00335865,40.2913327 C0.448501317,40.2913327 0,39.8406294 0,39.2852984 C0,38.7299675 0.448501317,38.2792642 1.00335865,38.2792642 L31.1041181,38.2792642 C31.6589755,38.2792642 32.1074768,38.7299675 32.1074768,39.2852984 C32.1074768,39.8406294 31.6589755,40.2913327 31.1041181,40.2913327" id="Fill-3"></path>
                    <path d="M14.0470211,43.3094355 C14.0470211,44.4200974 14.9470338,45.3215041 16.0537384,45.3215041 C17.1634531,45.3215041 18.0604557,44.4200974 18.0604557,43.3094355 C18.0604557,42.1977677 17.1634531,41.297367 16.0537384,41.297367 C14.9470338,41.297367 14.0470211,42.1977677 14.0470211,43.3094355 Z" id="Fill-4"></path>
                    <path d="M21.0705316,6.08616744 L11.0369451,6.08616744 C10.4820878,6.08616744 10.0335865,5.63546409 10.0335865,5.08013317 C10.0335865,4.52480225 10.4820878,4.07409889 11.0369451,4.07409889 L21.0705316,4.07409889 C21.625389,4.07409889 22.0738903,4.52480225 22.0738903,5.08013317 C22.0738903,5.63546409 21.625389,6.08616744 21.0705316,6.08616744" id="Fill-5"></path>
                </g>
                <g id="desktop_icon" sketch:type="MSShapeGroup">
                    <path d="M50.6752606,43.1697108 L4.74944393,43.1697108 C2.21663514,43.1697108 0.15686226,41.0214152 0.15686226,38.3813274 L0.15686226,4.39607145 C0.15686226,1.75483723 2.21663514,-0.392311943 4.74944393,-0.392311943 L50.6752606,-0.392311943 C53.2080694,-0.392311943 55.2678423,1.75483723 55.2678423,4.39607145 L55.2678423,38.3813274 C55.2678423,41.0214152 53.2080694,43.1697108 50.6752606,43.1697108 L50.6752606,43.1697108 Z M4.74944393,1.9004261 C3.48303953,1.9004261 2.45315309,3.02042863 2.45315309,4.39607145 L2.45315309,38.3813274 C2.45315309,39.7569702 3.48303953,40.8769727 4.74944393,40.8769727 L50.6752606,40.8769727 C51.941665,40.8769727 52.9715515,39.7569702 52.9715515,38.3813274 L52.9715515,4.39607145 C52.9715515,3.02042863 51.941665,1.9004261 50.6752606,1.9004261 L4.74944393,1.9004261 L4.74944393,1.9004261 Z" id="Fill-1"></path>
                    <path d="M43.7863881,47.7551869 L11.6383164,47.7551869 C11.003392,47.7551869 10.490171,47.2416135 10.490171,46.6088178 C10.490171,45.9760221 11.003392,45.4624488 11.6383164,45.4624488 L43.7863881,45.4624488 C44.4213125,45.4624488 44.9345335,45.9760221 44.9345335,46.6088178 C44.9345335,47.2416135 44.4213125,47.7551869 43.7863881,47.7551869" id="Fill-2"></path>
                    <path d="M27.7123523,47.7551869 C27.0774279,47.7551869 26.5642069,47.2416135 26.5642069,46.6088178 L26.5642069,42.0233418 C26.5642069,41.3905461 27.0774279,40.8769727 27.7123523,40.8769727 C28.3472767,40.8769727 28.8604977,41.3905461 28.8604977,42.0233418 L28.8604977,46.6088178 C28.8604977,47.2416135 28.3472767,47.7551869 27.7123523,47.7551869" id="Fill-3"></path>
                    <path d="M27.7123523,39.7306037 C26.4459479,39.7306037 25.4160614,38.7023107 25.4160614,37.4378657 C25.4160614,36.1734207 26.4459479,35.1451276 27.7123523,35.1451276 C28.9787567,35.1451276 30.0086431,36.1734207 30.0086431,37.4378657 C30.0086431,38.7023107 28.9787567,39.7306037 27.7123523,39.7306037 L27.7123523,39.7306037 Z M27.7135004,37.4378657 L27.7112041,37.4378657 L27.7123523,38.5842347 L27.7135004,37.4378657 L27.7135004,37.4378657 Z" id="Fill-4"></path>
                    <path d="M1.30500768,31.7060206 L54.1196969,31.7060206 L54.1196969,33.9987586 L1.30500768,33.9987586 L1.30500768,31.7060206 Z" id="Fill-5"></path>
                </g>
                <g id="sync_icon" transform="translate(72.000000, 6.000000)" sketch:type="MSShapeGroup">
                    <path d="M6.12,23.524 C6.102,23.524 6.084,23.524 6.066,23.523 C5.751,23.505 5.464,23.341 5.289,23.079 L-0.27,14.766 C-0.577,14.307 -0.454,13.686 0.006,13.379 C0.464,13.07 1.086,13.195 1.393,13.654 L6.21,20.859 L11.778,14.217 C12.133,13.794 12.763,13.736 13.187,14.093 C13.61,14.448 13.665,15.078 13.311,15.502 L6.887,23.166 C6.696,23.394 6.415,23.524 6.12,23.524" id="Fill-1"></path>
                    <path d="M45.692,23.899 C45.369,23.899 45.052,23.743 44.859,23.455 L40.045,16.251 L34.474,22.893 C34.119,23.317 33.489,23.369 33.065,23.017 C32.642,22.661 32.587,22.03 32.942,21.607 L39.369,13.944 C39.571,13.703 39.88,13.575 40.19,13.589 C40.504,13.605 40.792,13.77 40.967,14.031 L46.522,22.344 C46.829,22.803 46.706,23.424 46.247,23.73 C46.076,23.845 45.883,23.899 45.692,23.899" id="Fill-2"></path>
                    <path d="M23.084,35.549 C18.405,35.549 13.88,33.72 10.451,30.326 C10.058,29.938 10.055,29.305 10.443,28.912 C10.832,28.519 11.465,28.517 11.857,28.904 C15.805,32.809 21.381,34.386 26.777,33.119 C35,31.192 40.682,22.808 39.184,14.809 C39.082,14.267 39.44,13.744 39.982,13.642 C40.523,13.552 41.048,13.898 41.149,14.441 C42.838,23.458 36.465,32.903 27.233,35.066 C25.853,35.391 24.462,35.549 23.084,35.549" id="Fill-3"></path>
                    <path d="M6.125,23.417 C5.683,23.417 5.278,23.122 5.159,22.675 C3.898,17.954 4.61,13.008 7.164,8.747 C9.801,4.346 14.122,1.164 19.019,0.017 C25.486,-1.499 32.238,0.655 36.637,5.644 C37.002,6.058 36.962,6.69 36.548,7.055 C36.132,7.421 35.501,7.38 35.137,6.966 C31.226,2.532 25.223,0.617 19.475,1.964 C15.102,2.988 11.24,5.835 8.879,9.776 C6.606,13.567 5.972,17.966 7.091,22.159 C7.233,22.692 6.916,23.24 6.383,23.383 C6.296,23.406 6.21,23.417 6.125,23.417" id="Fill-4"></path>
                </g>
            </g>
        </g>
    </g>
</svg>